

<svg width="512px" height="512px"
     xmlns="http://www.w3.org/2000/svg">
	<g>
      <!-- from eye slashed out disabled -->
      <path d="M376.4,158.3
                     L448,86.6
                     L425.4,64
                     l-77.6,77.6
                     L64,425.4
                     L86.6,448
                     l76.9-76.9
                     z"/>
      
      <!-- from ios7 circle outline i think -->
		<path d="M256,48C141.1,48,48,141.1,48,256s93.1,208,208,208c114.9,0,208-93.1,208-208S370.9,48,256,48z M256,446.7
			c-105.1,0-190.7-85.5-190.7-190.7c0-105.1,85.5-190.7,190.7-190.7c105.1,0,190.7,85.5,190.7,190.7
			C446.7,361.1,361.1,446.7,256,446.7z"/>
	</g>
</svg>

