
<svg width="64" height="64" xmlns="http://www.w3.org/2000/svg">

  <path fill="#0fffff" fill-opacity="0" stroke="#000" stroke-width="NaN" stroke-linejoin="null" stroke-linecap="null" stroke-opacity="null" d="m16,32c0,-8.83978 7.16022,-16 16,-16c8.83978,0 16,7.16022 16,16c0,8.83978 -7.16022,16 -16,16c-8.83978,0 -16,-7.16022 -16,-16z" id="svg_5"/>
  
  <path d="m72.0431,-23.5578c0.0124,-0.40875 0.02734,-0.05771 0.03338,0.78764c0.00603,0.84534 0.00084,1.86182 -0.01156,2.2712c-0.03893,1.28811 -0.06582,3.99787 -0.06578,7.13841c0.00011,4.37938 0.05224,7.92247 0.11665,7.93025c0.06442,-0.00843 0.11655,-3.55186 0.11665,-7.93025c0.00005,-3.14215 -0.02685,-5.85451 -0.0658,-7.14002c-0.01244,-0.40971 -0.01762,-1.42588 -0.0116,-2.27121c0.00603,-0.84373 0.02094,-1.19737 0.03339,-0.78765c0.05563,1.83104 0.09401,5.71253 0.09402,10.19888c-0.00002,6.25706 -0.07458,11.32812 -0.16666,11.32976c-0.09204,-0.00164 -0.16666,-5.0727 -0.16666,-11.32976c0.00002,-4.48473 0.03833,-8.36363 0.09397,-10.19725zm0.07269,8.35583c-0.01379,0 -0.02499,-0.75944 -0.02499,-1.69943l0,-7.93091c0,-0.93899 0.0112,-1.69845 0.02499,-1.69845c0.01382,0 0.02499,0.76041 0.02499,1.69845l0,7.93028c0,0.93964 -0.01118,1.70006 -0.02499,1.70006z" id="svg_3" stroke="#000"/>
  
  <path fill="none" stroke="#000" d="m24,32c0,-4.41989 3.58011,-8 8,-8c4.41989,0 8,3.58011 8,8c0,4.41989 -3.58011,8 -8,8c-4.41989,0 -8,-3.58011 -8,-8z"/>
 </g>
</svg>