<svg version="1.1" id="chain-gang" xmlns="http://www.w3.org/2000/svg" xmlns:xlink="http://www.w3.org/1999/xlink"
width="64" height="64" viewBox="0 0 64 64">
<g>
	<!--svg id="circles" width="64" height="64" viewBox="0 0 64 64"-->
<!--rect x="0" y="0" width="64" height="64" fill="none" stroke-width="1" stroke="violet"/>
<path d="M31.5,0 h 1 v 64 h-1 v-64z "/-->
<path d="
M 24, 32
a 8,8 0 1,1 16,0
a 8,8 0 1,1 -16,0
z
M 26,32
a 6,6 0 1,0 12,0
a 6,6 0 1,0 -12,0
z
"/>
<path d="
M 10, 32
a 8,8 0 1,1 16,0
a 8,8 0 1,1 -16,0
z
M 12,32
a 6,6 0 1,0 12,0
a 6,6 0 1,0 -12,0
z
"/>
<path d="
M 38, 32
a 8,8 0 1,1 16,0
a 8,8 0 1,1 -16,0
z
M 40,32
a 6,6 0 1,0 12,0
a 6,6 0 1,0 -12,0
z
"/>
	</g>
</svg>