<svg id="circle-5-arrows-r" xmlns="http://www.w3.org/2000/svg"
width="64" height="64" viewBox="0 0 64 64">
<g>
<path d="
 M 6 32
 a 22,22 0 1 1 44,0
 a 22,22 0 1 1 -44,0
 M 8 32
 a 20,20 0 1,0 40,0
 a 20,20 0 1,0 -40,0 
z" />

<path d="
M 0 30
l 56 0
l 0 -3
l 8 4
l -8 4
l 0 -3
l -56 0
z
"/>


<path d="
M 0 46
l 56 0
l 0 -3
l 8 4
l -8 4
l 0 -3
l -56 0
z
"/>


<path d="
M 0 14
l 56 0
l 0 -3
l 8 4
l -8 4
l 0 -3
l -56 0
z
"/>

<path d="
M 0 38
l 56 0
l 0 -3
l 8 4
l -8 4
l 0 -3
l -56 0
z
"/>

<path d="
M 0 22
l 56 0
l 0 -3
l 8 4
l -8 4
l 0 -3
l -56 0
z
"/>

</g>
</svg>